<svg width="72" height="72" viewBox="0 0 72 72" fill="none" xmlns="http://www.w3.org/2000/svg">
<rect x="0.5" y="-0.5" width="71" height="71" rx="12.5" transform="matrix(-1 0 0 1 72 1)" stroke="white"/>
<rect x="26" y="23.5" width="3" height="3" fill="#4A29DE"/>
<rect x="27" y="26.5" width="3" height="3" fill="#4A29DE"/>
<rect x="29" y="25.5" width="3" height="3" fill="#4A29DE"/>
<rect x="30" y="26.5" width="3" height="3" fill="#4A29DE"/>
<rect x="32" y="27.5" width="3" height="3" fill="#4A29DE"/>
<rect x="35" y="27.5" width="3" height="3" fill="#4A29DE"/>
<rect x="36" y="25.5" width="3" height="3" fill="#4A29DE"/>
<rect x="36" y="23.5" width="3" height="3" fill="#4A29DE"/>
<rect x="39" y="26.5" width="3" height="3" fill="#4A29DE"/>
<rect x="41" y="25.5" width="3" height="3" fill="#4A29DE"/>
<rect x="44" y="25.5" width="3" height="3" fill="#4A29DE"/>
<rect x="45" y="23.5" width="3" height="3" fill="#4A29DE"/>
<rect x="47" y="20.5" width="3" height="3" fill="#29DE6E"/>
<rect x="47" y="22.5" width="3" height="3" fill="#29DE6E"/>
<rect x="46" y="24.5" width="3" height="3" fill="#29DE6E"/>
<rect x="47" y="26.5" width="3" height="3" fill="#29DE6E"/>
<rect x="50" y="27.5" width="3" height="3" fill="#29DE6E"/>
<rect x="52" y="28.5" width="3" height="3" fill="#29DE6E"/>
<rect x="50" y="29.5" width="3" height="3" fill="#29DE6E"/>
<rect x="48" y="30.5" width="3" height="3" fill="#29DE6E"/>
<rect x="46" y="31.5" width="3" height="3" fill="#29DE6E"/>
<rect x="47" y="31.5" width="3" height="3" fill="#29DE6E"/>
<rect x="44" y="33.5" width="3" height="3" fill="#29DE6E"/>
<rect x="45" y="34.5" width="3" height="3" fill="#29DE6E"/>
<rect x="47" y="35.5" width="3" height="3" fill="#29DE6E"/>
<rect x="48" y="37.5" width="3" height="3" fill="#29DE6E"/>
<rect x="49" y="38.5" width="3" height="3" fill="#29DE6E"/>
<rect x="51" y="40.5" width="3" height="3" fill="#29DE6E"/>
<rect x="52" y="40.5" width="3" height="3" fill="#29DE6E"/>
<rect x="54" y="41.5" width="3" height="3" fill="#29DE6E"/>
<rect x="51" y="42.5" width="3" height="3" fill="#29DE6E"/>
<rect x="49" y="42.5" width="3" height="3" fill="#29DE6E"/>
<rect x="46" y="41.5" width="3" height="3" fill="#29DE6E"/>
<rect x="47" y="44.5" width="3" height="3" fill="#29DE6E"/>
<rect x="47" y="46.5" width="3" height="3" fill="#29DE6E"/>
<rect x="46" y="48.5" width="3" height="3" fill="#29DE6E"/>
<rect x="47" y="51.5" width="3" height="3" fill="#29DE6E"/>
<rect x="48" y="51.5" width="3" height="3" fill="#29DE6E"/>
<rect x="42" y="47.5" width="3" height="3" fill="#29DE6E"/>
<rect x="39" y="46.5" width="3" height="3" fill="#29DE6E"/>
<rect x="39" y="44.5" width="3" height="3" fill="#29DE6E"/>
<rect x="37" y="49.5" width="3" height="3" fill="#29DE6E"/>
<rect x="36" y="51.5" width="3" height="3" fill="#29DE6E"/>
<rect x="36" y="53.5" width="3" height="3" fill="#29DE6E"/>
<rect x="34" y="49.5" width="3" height="3" fill="#29DE6E"/>
<rect x="33" y="46.5" width="3" height="3" fill="#29DE6E"/>
<rect x="31" y="46.5" width="3" height="3" fill="#29DE6E"/>
<rect x="30" y="48.5" width="3" height="3" fill="#29DE6E"/>
<rect x="28" y="50.5" width="3" height="3" fill="#29DE6E"/>
<rect x="26" y="51.5" width="3" height="3" fill="#29DE6E"/>
<rect x="25" y="48.5" width="3" height="3" fill="#29DE6E"/>
<rect x="24" y="45.5" width="3" height="3" fill="#29DE6E"/>
<rect x="21" y="45.5" width="3" height="3" fill="#29DE6E"/>
<rect x="20" y="47.5" width="3" height="3" fill="#29DE6E"/>
<rect x="18" y="49.5" width="3" height="3" fill="#29DE6E"/>
<rect x="16" y="49.5" width="3" height="3" fill="#29DE6E"/>
<rect x="18" y="46.5" width="3" height="3" fill="#29DE6E"/>
<rect x="20" y="43.5" width="3" height="3" fill="#29DE6E"/>
<rect x="21" y="40.5" width="3" height="3" fill="#29DE6E"/>
<rect x="19" y="40.5" width="3" height="3" fill="#29DE6E"/>
<rect x="16" y="40.5" width="3" height="3" fill="#29DE6E"/>
<rect x="13" y="40.5" width="3" height="3" fill="#29DE6E"/>
<rect x="16" y="38.5" width="3" height="3" fill="#29DE6E"/>
<rect x="18" y="35.5" width="3" height="3" fill="#29DE6E"/>
<rect x="18" y="32.5" width="3" height="3" fill="#29DE6E"/>
<rect x="15" y="31.5" width="3" height="3" fill="#29DE6E"/>
<rect x="18" y="30.5" width="3" height="3" fill="#29DE6E"/>
<rect x="19" y="27.5" width="3" height="3" fill="#29DE6E"/>
<rect x="19" y="25.5" width="3" height="3" fill="#29DE6E"/>
<rect x="18" y="22.5" width="3" height="3" fill="#29DE6E"/>
<rect x="21" y="24.5" width="3" height="3" fill="#29DE6E"/>
<rect x="22" y="26.5" width="3" height="3" fill="#29DE6E"/>
<rect x="25" y="26.5" width="3" height="3" fill="#29DE6E"/>
<rect x="24" y="24.5" width="3" height="3" fill="#29DE6E"/>
<rect x="25" y="21.5" width="3" height="3" fill="#29DE6E"/>
<rect x="25" y="18.5" width="3" height="3" fill="#29DE6E"/>
<rect x="28" y="19.5" width="3" height="3" fill="#29DE6E"/>
<rect x="28" y="22.5" width="3" height="3" fill="#29DE6E"/>
<rect x="30" y="23.5" width="3" height="3" fill="#29DE6E"/>
<rect x="32" y="24.5" width="3" height="3" fill="#29DE6E"/>
<rect x="34" y="23.5" width="3" height="3" fill="#29DE6E"/>
<rect x="35" y="20.5" width="3" height="3" fill="#29DE6E"/>
<rect x="34" y="24.5" width="3" height="3" fill="#29DE6E"/>
<rect x="37" y="18.5" width="3" height="3" fill="#29DE6E"/>
<rect x="38" y="21.5" width="3" height="3" fill="#29DE6E"/>
<rect x="39" y="23.5" width="3" height="3" fill="#29DE6E"/>
<rect x="42" y="22.5" width="3" height="3" fill="#29DE6E"/>
<rect x="44" y="20.5" width="3" height="3" fill="#29DE6E"/>
<rect x="47" y="19.5" width="3" height="3" fill="#29DE6E"/>
<rect x="50" y="17.5" width="3" height="3" fill="#FFF82B"/>
<rect x="51" y="15.5" width="3" height="3" fill="#FFF82B"/>
<rect x="49" y="20.5" width="3" height="3" fill="#FFF82B"/>
<rect x="49" y="22.5" width="3" height="3" fill="#FFF82B"/>
<rect x="49" y="24.5" width="3" height="3" fill="#FFF82B"/>
<rect x="52" y="25.5" width="3" height="3" fill="#FFF82B"/>
<rect x="55" y="26.5" width="3" height="3" fill="#FFF82B"/>
<rect x="57" y="27.5" width="3" height="3" fill="#FFF82B"/>
<rect x="55" y="29.5" width="3" height="3" fill="#FFF82B"/>
<rect x="52" y="30.5" width="3" height="3" fill="#FFF82B"/>
<rect x="51" y="32.5" width="3" height="3" fill="#FFF82B"/>
<rect x="49" y="33.5" width="3" height="3" fill="#FFF82B"/>
<rect x="48" y="33.5" width="3" height="3" fill="#FFF82B"/>
<rect x="50" y="34.5" width="3" height="3" fill="#FFF82B"/>
<rect x="51" y="35.5" width="3" height="3" fill="#FFF82B"/>
<rect x="52" y="37.5" width="3" height="3" fill="#FFF82B"/>
<rect x="54" y="38.5" width="3" height="3" fill="#FFF82B"/>
<rect x="56" y="39.5" width="3" height="3" fill="#FFF82B"/>
<rect x="57" y="41.5" width="3" height="3" fill="#FFF82B"/>
<rect x="58" y="43.5" width="3" height="3" fill="#FFF82B"/>
<rect x="56" y="43.5" width="3" height="3" fill="#FFF82B"/>
<rect x="54" y="43.5" width="3" height="3" fill="#FFF82B"/>
<rect x="52" y="44.5" width="3" height="3" fill="#FFF82B"/>
<rect x="50" y="44.5" width="3" height="3" fill="#FFF82B"/>
<rect x="49" y="46.5" width="3" height="3" fill="#FFF82B"/>
<rect x="49" y="49.5" width="3" height="3" fill="#FFF82B"/>
<rect x="50" y="51.5" width="3" height="3" fill="#FFF82B"/>
<rect x="50" y="54.5" width="3" height="3" fill="#FFF82B"/>
<rect x="47" y="53.5" width="3" height="3" fill="#FFF82B"/>
<rect x="44" y="51.5" width="3" height="3" fill="#FFF82B"/>
<rect x="43" y="50.5" width="3" height="3" fill="#FFF82B"/>
<rect x="41" y="51.5" width="3" height="3" fill="#FFF82B"/>
<rect x="40" y="49.5" width="3" height="3" fill="#FFF82B"/>
<rect x="39" y="52.5" width="3" height="3" fill="#FFF82B"/>
<rect x="38" y="54.5" width="3" height="3" fill="#FFF82B"/>
<rect x="36" y="55.5" width="3" height="3" fill="#FFF82B"/>
<rect x="34" y="53.5" width="3" height="3" fill="#FFF82B"/>
<rect x="33" y="51.5" width="3" height="3" fill="#FFF82B"/>
<rect x="32" y="49.5" width="3" height="3" fill="#FFF82B"/>
<rect x="30" y="51.5" width="3" height="3" fill="#FFF82B"/>
<rect x="28" y="52.5" width="3" height="3" fill="#FFF82B"/>
<rect x="25" y="53.5" width="3" height="3" fill="#FFF82B"/>
<rect x="24" y="51.5" width="3" height="3" fill="#FFF82B"/>
<rect x="23" y="49.5" width="3" height="3" fill="#FFF82B"/>
<rect x="22" y="47.5" width="3" height="3" fill="#FFF82B"/>
<rect x="20" y="50.5" width="3" height="3" fill="#FFF82B"/>
<rect x="18" y="51.5" width="3" height="3" fill="#FFF82B"/>
<rect x="15" y="52.5" width="3" height="3" fill="#FFF82B"/>
<rect x="14" y="48.5" width="3" height="3" fill="#FFF82B"/>
<rect x="13" y="50.5" width="3" height="3" fill="#FFF82B"/>
<rect x="15" y="47.5" width="3" height="3" fill="#FFF82B"/>
<rect x="16" y="46.5" width="3" height="3" fill="#FFF82B"/>
<rect x="17" y="44.5" width="3" height="3" fill="#FFF82B"/>
<rect x="17" y="43.5" width="3" height="3" fill="#FFF82B"/>
<rect x="14" y="43.5" width="3" height="3" fill="#FFF82B"/>
<rect x="12" y="43.5" width="3" height="3" fill="#FFF82B"/>
<rect x="11" y="40.5" width="3" height="3" fill="#FFF82B"/>
<rect x="13" y="38.5" width="3" height="3" fill="#FFF82B"/>
<rect x="16" y="35.5" width="3" height="3" fill="#FFF82B"/>
<rect x="16" y="34.5" width="3" height="3" fill="#FFF82B"/>
<rect x="13" y="33.5" width="3" height="3" fill="#FFF82B"/>
<rect x="13" y="30.5" width="3" height="3" fill="#FFF82B"/>
<rect x="11" y="28.5" width="3" height="3" fill="#FFF82B"/>
<rect x="13" y="29.5" width="3" height="3" fill="#FFF82B"/>
<rect x="16" y="29.5" width="3" height="3" fill="#FFF82B"/>
<rect x="17" y="27.5" width="3" height="3" fill="#FFF82B"/>
<rect x="17" y="24.5" width="3" height="3" fill="#FFF82B"/>
<rect x="16" y="21.5" width="3" height="3" fill="#FFF82B"/>
<rect x="15" y="18.5" width="3" height="3" fill="#FFF82B"/>
<rect x="18" y="19.5" width="3" height="3" fill="#FFF82B"/>
<rect x="21" y="21.5" width="3" height="3" fill="#FFF82B"/>
<rect x="23" y="21.5" width="3" height="3" fill="#FFF82B"/>
<rect x="23" y="19.5" width="3" height="3" fill="#FFF82B"/>
<rect x="23" y="16.5" width="3" height="3" fill="#FFF82B"/>
<rect x="25" y="16.5" width="3" height="3" fill="#FFF82B"/>
<rect x="25" y="14.5" width="3" height="3" fill="#FFF82B"/>
<rect x="27" y="16.5" width="3" height="3" fill="#FFF82B"/>
<rect x="29" y="17.5" width="3" height="3" fill="#FFF82B"/>
<rect x="31" y="20.5" width="3" height="3" fill="#FFF82B"/>
<rect x="33" y="21.5" width="3" height="3" fill="#FFF82B"/>
<rect x="33" y="18.5" width="3" height="3" fill="#FFF82B"/>
<rect x="35" y="17.5" width="3" height="3" fill="#FFF82B"/>
<rect x="36" y="15.5" width="3" height="3" fill="#FFF82B"/>
<rect x="36" y="13.5" width="3" height="3" fill="#FFF82B"/>
<rect x="38" y="16.5" width="3" height="3" fill="#FFF82B"/>
<rect x="40" y="18.5" width="3" height="3" fill="#FFF82B"/>
<rect x="42" y="20.5" width="3" height="3" fill="#FFF82B"/>
<rect x="41" y="20.5" width="3" height="3" fill="#FFF82B"/>
<rect x="45" y="18.5" width="3" height="3" fill="#FFF82B"/>
<rect x="47" y="17.5" width="3" height="3" fill="#FFF82B"/>
<rect x="13" y="52.5" width="3" height="3" fill="#FFF82B"/>
<rect x="15" y="51.5" width="3" height="3" fill="#29DE6E"/>
<rect x="43" y="28.5" width="3" height="3" fill="#4A29DE"/>
<rect x="41" y="28.5" width="3" height="3" fill="#4A29DE"/>
<rect x="38" y="28.5" width="3" height="3" fill="#4A29DE"/>
<rect x="36" y="28.5" width="3" height="3" fill="#4A29DE"/>
<rect x="46" y="28.5" width="3" height="3" fill="#4A29DE"/>
<rect x="48" y="28.5" width="3" height="3" fill="#4A29DE"/>
<rect x="46" y="29.5" width="3" height="3" fill="#4A29DE"/>
<rect x="44" y="30.5" width="3" height="3" fill="#4A29DE"/>
<rect x="42" y="32.5" width="3" height="3" fill="#4A29DE"/>
<rect x="43" y="35.5" width="3" height="3" fill="#4A29DE"/>
<rect x="45" y="36.5" width="3" height="3" fill="#4A29DE"/>
<rect x="46" y="37.5" width="3" height="3" fill="#4A29DE"/>
<rect x="48" y="38.5" width="3" height="3" fill="#4A29DE"/>
<rect x="49" y="40.5" width="3" height="3" fill="#4A29DE"/>
<rect x="46" y="39.5" width="3" height="3" fill="#4A29DE"/>
<rect x="43" y="39.5" width="3" height="3" fill="#4A29DE"/>
<rect x="43" y="42.5" width="3" height="3" fill="#4A29DE"/>
<rect x="45" y="43.5" width="3" height="3" fill="#4A29DE"/>
<rect x="44" y="45.5" width="3" height="3" fill="#4A29DE"/>
<rect x="45" y="47.5" width="3" height="3" fill="#4A29DE"/>
<rect x="42" y="44.5" width="3" height="3" fill="#4A29DE"/>
<rect x="41" y="42.5" width="3" height="3" fill="#4A29DE"/>
<rect x="40" y="39.5" width="3" height="3" fill="#4A29DE"/>
<rect x="42" y="36.5" width="3" height="3" fill="#4A29DE"/>
<rect x="39" y="36.5" width="3" height="3" fill="#4A29DE"/>
<rect x="40" y="33.5" width="3" height="3" fill="#4A29DE"/>
<rect x="37" y="33.5" width="3" height="3" fill="#4A29DE"/>
<rect x="37" y="31.5" width="3" height="3" fill="#4A29DE"/>
<rect x="40" y="31.5" width="3" height="3" fill="#4A29DE"/>
<rect x="41" y="31.5" width="3" height="3" fill="#4A29DE"/>
<rect x="34" y="31.5" width="3" height="3" fill="#4A29DE"/>
<rect x="33" y="30.5" width="3" height="3" fill="#4A29DE"/>
<rect x="31" y="30.5" width="3" height="3" fill="#4A29DE"/>
<rect x="29" y="29.5" width="3" height="3" fill="#4A29DE"/>
<rect x="26" y="29.5" width="3" height="3" fill="#4A29DE"/>
<rect x="23" y="29.5" width="3" height="3" fill="#4A29DE"/>
<rect x="23" y="27.5" width="3" height="3" fill="#4A29DE"/>
<rect x="21" y="28.5" width="3" height="3" fill="#4A29DE"/>
<rect x="21" y="31.5" width="3" height="3" fill="#4A29DE"/>
<rect x="21" y="33.5" width="3" height="3" fill="#4A29DE"/>
<rect x="20" y="33.5" width="3" height="3" fill="#4A29DE"/>
<rect x="20" y="35.5" width="3" height="3" fill="#4A29DE"/>
<rect x="19" y="37.5" width="3" height="3" fill="#4A29DE"/>
<rect x="18" y="39.5" width="3" height="3" fill="#4A29DE"/>
<rect x="22" y="38.5" width="3" height="3" fill="#4A29DE"/>
<rect x="24" y="39.5" width="3" height="3" fill="#4A29DE"/>
<rect x="23" y="42.5" width="3" height="3" fill="#4A29DE"/>
<rect x="21" y="43.5" width="3" height="3" fill="#4A29DE"/>
<rect x="26" y="43.5" width="3" height="3" fill="#4A29DE"/>
<rect x="26" y="45.5" width="3" height="3" fill="#4A29DE"/>
<rect x="27" y="47.5" width="3" height="3" fill="#4A29DE"/>
<rect x="29" y="46.5" width="3" height="3" fill="#4A29DE"/>
<rect x="32" y="44.5" width="3" height="3" fill="#4A29DE"/>
<rect x="34" y="45.5" width="3" height="3" fill="#4A29DE"/>
<rect x="36" y="46.5" width="3" height="3" fill="#4A29DE"/>
<rect x="37" y="44.5" width="3" height="3" fill="#4A29DE"/>
<rect x="39" y="41.5" width="3" height="3" fill="#4A29DE"/>
<rect x="37" y="38.5" width="3" height="3" fill="#4A29DE"/>
<rect x="36" y="36.5" width="3" height="3" fill="#4A29DE"/>
<rect x="34" y="34.5" width="3" height="3" fill="#4A29DE"/>
<rect x="31" y="33.5" width="3" height="3" fill="#4A29DE"/>
<rect x="28" y="32.5" width="3" height="3" fill="#4A29DE"/>
<rect x="25" y="32.5" width="3" height="3" fill="#4A29DE"/>
<rect x="23" y="32.5" width="3" height="3" fill="#4A29DE"/>
<rect x="23" y="35.5" width="3" height="3" fill="#4A29DE"/>
<rect x="26" y="35.5" width="3" height="3" fill="#4A29DE"/>
<rect x="29" y="35.5" width="3" height="3" fill="#4A29DE"/>
<rect x="32" y="35.5" width="3" height="3" fill="#4A29DE"/>
<rect x="34" y="37.5" width="3" height="3" fill="#4A29DE"/>
<rect x="31" y="37.5" width="3" height="3" fill="#4A29DE"/>
<rect x="28" y="37.5" width="3" height="3" fill="#4A29DE"/>
<rect x="25" y="37.5" width="3" height="3" fill="#4A29DE"/>
<rect x="25" y="40.5" width="3" height="3" fill="#4A29DE"/>
<rect x="28" y="40.5" width="3" height="3" fill="#4A29DE"/>
<rect x="31" y="40.5" width="3" height="3" fill="#4A29DE"/>
<rect x="34" y="40.5" width="3" height="3" fill="#4A29DE"/>
<rect x="37" y="40.5" width="3" height="3" fill="#4A29DE"/>
<rect x="37" y="42.5" width="3" height="3" fill="#4A29DE"/>
<rect x="35" y="43.5" width="3" height="3" fill="#4A29DE"/>
<rect x="32" y="42.5" width="3" height="3" fill="#4A29DE"/>
<rect x="29" y="43.5" width="3" height="3" fill="#4A29DE"/>
</svg>
