<svg width="67" height="67" viewBox="0 0 67 67" fill="none" xmlns="http://www.w3.org/2000/svg">
<rect width="67" height="67" rx="33.5" fill="#15DC2A"/>
<g clip-path="url(#clip0_9_1267)">
<path d="M27.6667 15H25.3334V17.3368H27.6667V15Z" fill="black"/>
<path d="M25.3333 17.3369H23V19.6737H25.3333V17.3369Z" fill="black"/>
<path d="M41.6667 16.9474H44V19.2842H41.6667V16.9474Z" fill="black"/>
<path d="M23 17.3369H20.6666V19.6737H23V17.3369Z" fill="black"/>
<path d="M44 16.9474H46.3334V19.2842H44V16.9474Z" fill="black"/>
<path d="M20.6667 17.3369H18.3334V19.6737H20.6667V17.3369Z" fill="black"/>
<path d="M46.3333 16.9474H48.6666V19.2842H46.3333V16.9474Z" fill="black"/>
<path d="M18.3333 17.3369H16V19.6737H18.3333V17.3369Z" fill="black"/>
<path d="M48.6667 16.9474H51V19.2842H48.6667V16.9474Z" fill="black"/>
<path d="M25.3333 19.6737H23V22.0105H25.3333V19.6737Z" fill="black"/>
<path d="M41.6667 19.2842H44V21.6211H41.6667V19.2842Z" fill="black"/>
<path d="M25.3333 22.0105H23V24.3474H25.3333V22.0105Z" fill="black"/>
<path d="M41.6667 21.6211H44V23.9579H41.6667V21.6211Z" fill="black"/>
<path d="M25.3333 24.3474H23V26.6842H25.3333V24.3474Z" fill="black"/>
<path d="M41.6667 23.9579H44V26.2947H41.6667V23.9579Z" fill="black"/>
<path d="M25.3333 26.6842H23V29.021H25.3333V26.6842Z" fill="black"/>
<path d="M41.6667 26.2947H44V28.6316H41.6667V26.2947Z" fill="black"/>
<path d="M25.3333 29.0211H23V31.3579H25.3333V29.0211Z" fill="black"/>
<path d="M27.6667 17.3369H25.3334V19.6737H27.6667V17.3369Z" fill="#F8ED33"/>
<path d="M27.6667 19.6737H25.3334V22.0105H27.6667V19.6737Z" fill="#F8ED33"/>
<path d="M27.6667 22.0105H25.3334V24.3474H27.6667V22.0105Z" fill="#F8ED33"/>
<path d="M27.6667 24.3474H25.3334V26.6842H27.6667V24.3474Z" fill="#F8ED33"/>
<path d="M27.6667 26.6842H25.3334V29.021H27.6667V26.6842Z" fill="#F8ED33"/>
<path d="M27.6667 29.0211H25.3334V31.3579H27.6667V29.0211Z" fill="#F8ED33"/>
<path d="M27.6667 30.9684H25.3334V33.3053H27.6667V30.9684Z" fill="#F8ED33"/>
<path d="M30 17.3369H27.6666V19.6737H30V17.3369Z" fill="#F8ED33"/>
<path d="M30 19.6737H27.6666V22.0105H30V19.6737Z" fill="white"/>
<path d="M30 22.0105H27.6666V24.3474H30V22.0105Z" fill="white"/>
<path d="M30 24.3474H27.6666V26.6842H30V24.3474Z" fill="white"/>
<path d="M30 26.6842H27.6666V29.021H30V26.6842Z" fill="#F8ED33"/>
<path d="M30 29.0211H27.6666V31.3579H30V29.0211Z" fill="#F8ED33"/>
<path d="M30 30.9684H27.6666V33.3053H30V30.9684Z" fill="#F8ED33"/>
<path d="M30 33.3053H27.6666V35.6421H30V33.3053Z" fill="#F8ED33"/>
<path d="M32.3333 17.3369H30V19.6737H32.3333V17.3369Z" fill="#F8ED33"/>
<path d="M32.3333 19.6737H30V22.0105H32.3333V19.6737Z" fill="#F8ED33"/>
<path d="M32.3333 22.0105H30V24.3474H32.3333V22.0105Z" fill="#F8ED33"/>
<path d="M32.3333 24.3474H30V26.6842H32.3333V24.3474Z" fill="#F8ED33"/>
<path d="M32.3333 26.6842H30V29.021H32.3333V26.6842Z" fill="#F8ED33"/>
<path d="M32.3333 29.0211H30V31.3579H32.3333V29.0211Z" fill="#F8ED33"/>
<path d="M32.3333 30.9684H30V33.3053H32.3333V30.9684Z" fill="#F8ED33"/>
<path d="M30 30.9684H27.6666V33.3053H30V30.9684Z" fill="#FDB03E"/>
<path d="M34.6667 17.3369H32.3334V19.6737H34.6667V17.3369Z" fill="#F8ED33"/>
<path d="M34.6667 19.6737H32.3334V22.0105H34.6667V19.6737Z" fill="#F8ED33"/>
<path d="M34.6667 22.0105H32.3334V24.3474H34.6667V22.0105Z" fill="#F8ED33"/>
<path d="M34.6667 24.3474H32.3334V26.6842H34.6667V24.3474Z" fill="#F8ED33"/>
<path d="M34.6667 26.6842H32.3334V29.021H34.6667V26.6842Z" fill="#F8ED33"/>
<path d="M34.6667 29.0211H32.3334V31.3579H34.6667V29.0211Z" fill="#F8ED33"/>
<path d="M34.6667 30.9684H32.3334V33.3053H34.6667V30.9684Z" fill="#F8ED33"/>
<path d="M34.6667 33.3053H32.3334V35.6421H34.6667V33.3053Z" fill="#FDB03E"/>
<path d="M32.3333 33.3053H30V35.6421H32.3333V33.3053Z" fill="#FDB03E"/>
<path d="M34.6667 35.6421H32.3334V37.9789H34.6667V35.6421Z" fill="#FDB03E"/>
<path d="M34.6667 37.979H32.3334V40.3158H34.6667V37.979Z" fill="#FDB03E"/>
<path d="M34.6667 40.3158H32.3334V42.6526H34.6667V40.3158Z" fill="#FDB03E"/>
<path d="M34.6667 42.6526H32.3334V44.9895H34.6667V42.6526Z" fill="#FDB03E"/>
<path d="M32.3333 44.9895H30V47.3263H32.3333V44.9895Z" fill="#F8ED33"/>
<path d="M34.6667 44.9895H32.3334V47.3263H34.6667V44.9895Z" fill="#FDB03E"/>
<path d="M37 44.9895H34.6666V47.3263H37V44.9895Z" fill="#FDB03E"/>
<path d="M39.3333 47.3263H37V49.6632H39.3333V47.3263Z" fill="#FDB03E"/>
<path d="M37 47.3263H34.6666V49.6632H37V47.3263Z" fill="#FDB03E"/>
<path d="M34.6667 47.3263H32.3334V49.6632H34.6667V47.3263Z" fill="#F8ED33"/>
<path d="M32.3333 47.3263H30V49.6632H32.3333V47.3263Z" fill="#F8ED33"/>
<path d="M30 47.3263H27.6666V49.6632H30V47.3263Z" fill="#F8ED33"/>
<path d="M37 17.3369H34.6666V19.6737H37V17.3369Z" fill="#F8ED33"/>
<path d="M37 19.6737H34.6666V22.0105H37V19.6737Z" fill="#F8ED33"/>
<path d="M37 22.0105H34.6666V24.3474H37V22.0105Z" fill="#F8ED33"/>
<path d="M37 24.3474H34.6666V26.6842H37V24.3474Z" fill="#F8ED33"/>
<path d="M37 26.6842H34.6666V29.021H37V26.6842Z" fill="#F8ED33"/>
<path d="M37 29.0211H34.6666V31.3579H37V29.0211Z" fill="#F8ED33"/>
<path d="M37 30.9684H34.6666V33.3053H37V30.9684Z" fill="#F8ED33"/>
<path d="M37 33.3053H34.6666V35.6421H37V33.3053Z" fill="#FDB03E"/>
<path d="M39.3333 17.3369H37V19.6737H39.3333V17.3369Z" fill="#F8ED33"/>
<path d="M39.3333 19.6737H37V22.0105H39.3333V19.6737Z" fill="#F8ED33"/>
<path d="M39.3333 22.0105H37V24.3474H39.3333V22.0105Z" fill="#F8ED33"/>
<path d="M39.3333 24.3474H37V26.6842H39.3333V24.3474Z" fill="#F8ED33"/>
<path d="M39.3333 26.6842H37V29.021H39.3333V26.6842Z" fill="#F8ED33"/>
<path d="M39.3333 29.0211H37V31.3579H39.3333V29.0211Z" fill="#F8ED33"/>
<path d="M39.3333 30.9684H37V33.3053H39.3333V30.9684Z" fill="#FDB03E"/>
<path d="M39.3333 33.3053H37V35.6421H39.3333V33.3053Z" fill="#F8ED33"/>
<path d="M41.6667 17.3369H39.3334V19.6737H41.6667V17.3369Z" fill="#FDB03E"/>
<path d="M41.6667 19.6737H39.3334V22.0105H41.6667V19.6737Z" fill="#FDB03E"/>
<path d="M41.6667 22.0105H39.3334V24.3474H41.6667V22.0105Z" fill="#FDB03E"/>
<path d="M41.6667 24.3474H39.3334V26.6842H41.6667V24.3474Z" fill="#FDB03E"/>
<path d="M41.6667 26.6842H39.3334V29.021H41.6667V26.6842Z" fill="#FDB03E"/>
<path d="M41.6667 29.0211H39.3334V31.3579H41.6667V29.0211Z" fill="#FDB03E"/>
<path d="M41.6667 30.9684H39.3334V33.3053H41.6667V30.9684Z" fill="#F8ED33"/>
<path d="M41.6667 28.6316H44V30.9684H41.6667V28.6316Z" fill="black"/>
<path d="M39.3333 30.9684H41.6666V33.3053H39.3333V30.9684Z" fill="black"/>
<path d="M37 33.3053H39.3334V35.6421H37V33.3053Z" fill="black"/>
<path d="M25.3333 30.9684H27.6666V33.3053H25.3333V30.9684Z" fill="black"/>
<path d="M27.6667 33.3053H30V35.6421H27.6667V33.3053Z" fill="black"/>
<path d="M30 35.6421H32.3334V37.9789H30V35.6421Z" fill="black"/>
<path d="M30 37.979H32.3334V40.3158H30V37.979Z" fill="black"/>
<path d="M34.6667 37.979H37V40.3158H34.6667V37.979Z" fill="black"/>
<path d="M34.6667 40.3158H37V42.6526H34.6667V40.3158Z" fill="black"/>
<path d="M34.6667 42.6526H37V44.9895H34.6667V42.6526Z" fill="black"/>
<path d="M30 42.6526H32.3334V44.9895H30V42.6526Z" fill="black"/>
<path d="M27.6667 44.9895H30V47.3263H27.6667V44.9895Z" fill="black"/>
<path d="M37 44.9895H39.3334V47.3263H37V44.9895Z" fill="black"/>
<path d="M39.3333 47.3263H41.6666V49.6632H39.3333V47.3263Z" fill="black"/>
<path d="M39.3333 49.6631H41.6666V52H39.3333V49.6631Z" fill="black"/>
<path d="M37 49.6631H39.3334V52H37V49.6631Z" fill="black"/>
<path d="M34.6667 49.6631H37V52H34.6667V49.6631Z" fill="black"/>
<path d="M32.3333 49.6631H34.6666V52H32.3333V49.6631Z" fill="black"/>
<path d="M30 49.6631H32.3334V52H30V49.6631Z" fill="black"/>
<path d="M27.6667 49.6631H30V52H27.6667V49.6631Z" fill="black"/>
<path d="M25.3333 49.6631H27.6666V52H25.3333V49.6631Z" fill="black"/>
<path d="M25.3333 47.3263H27.6666V49.6632H25.3333V47.3263Z" fill="black"/>
<path d="M30 40.3158H32.3334V42.6526H30V40.3158Z" fill="black"/>
<path d="M34.6667 35.6421H37V37.9789H34.6667V35.6421Z" fill="black"/>
<path d="M23 29.0211H20.6666V31.3579H23V29.0211Z" fill="black"/>
<path d="M44 28.6316H46.3334V30.9684H44V28.6316Z" fill="black"/>
<path d="M20.6667 27.0737H18.3334V29.4105H20.6667V27.0737Z" fill="black"/>
<path d="M46.3333 26.6842H48.6666V29.021H46.3333V26.6842Z" fill="black"/>
<path d="M18.3333 25.1263H16V27.4632H18.3333V25.1263Z" fill="black"/>
<path d="M48.6667 24.7368H51V27.0737H48.6667V24.7368Z" fill="black"/>
<path d="M18.3333 23.179H16V25.5158H18.3333V23.179Z" fill="black"/>
<path d="M48.6667 22.7895H51V25.1263H48.6667V22.7895Z" fill="black"/>
<path d="M18.3333 20.8421H16V23.1789H18.3333V20.8421Z" fill="black"/>
<path d="M48.6667 20.4526H51V22.7895H48.6667V20.4526Z" fill="black"/>
<path d="M18.3333 18.5052H16V20.8421H18.3333V18.5052Z" fill="black"/>
<path d="M48.6667 18.1158H51V20.4526H48.6667V18.1158Z" fill="black"/>
<path d="M30 15H27.6666V17.3368H30V15Z" fill="black"/>
<path d="M32.3333 15H30V17.3368H32.3333V15Z" fill="black"/>
<path d="M34.6667 15H32.3334V17.3368H34.6667V15Z" fill="black"/>
<path d="M37 15H34.6666V17.3368H37V15Z" fill="black"/>
<path d="M39.3333 15H37V17.3368H39.3333V15Z" fill="black"/>
<path d="M41.6667 15H39.3334V17.3368H41.6667V15Z" fill="black"/>
</g>
<defs>
<clipPath id="clip0_9_1267">
<rect width="35" height="37" fill="white" transform="translate(16 15)"/>
</clipPath>
</defs>
</svg>
