<svg width="565" height="275" viewBox="0 0 565 275" fill="none" xmlns="http://www.w3.org/2000/svg">
<g filter="url(#filter0_df_9_423)">
<path d="M95.38 129.4V45.4H167.38V57.4H179.38V93.4H155.38V105.4H167.38V117.4H179.38V129.4H143.38V117.4H131.38V105.4H119.38V129.4H95.38ZM119.38 93.4H143.38V81.4H155.38V57.4H119.38V93.4ZM204.34 129.4V117.4H192.34V57.4H204.34V45.4H264.34V57.4H276.34V117.4H264.34V129.4H204.34ZM216.34 117.4H252.34V57.4H216.34V117.4ZM313.3 129.4V117.4H301.3V105.4H289.3V69.4H301.3V57.4H313.3V45.4H361.3V57.4H373.3V69.4H349.3V57.4H325.3V69.4H313.3V105.4H325.3V117.4H349.3V105.4H373.3V117.4H361.3V129.4H313.3ZM386.26 129.4V45.4H410.26V81.4H422.26V69.4H434.26V57.4H446.26V45.4H470.26V57.4H458.26V69.4H446.26V81.4H434.26V93.4H446.26V105.4H458.26V117.4H470.26V129.4H434.26V117.4H422.26V105.4H410.26V129.4H386.26Z" fill="#15FF30"/>
</g>
<g filter="url(#filter1_df_9_423)">
<path d="M95.38 129.4V45.4H167.38V57.4H179.38V93.4H155.38V105.4H167.38V117.4H179.38V129.4H143.38V117.4H131.38V105.4H119.38V129.4H95.38ZM119.38 93.4H143.38V81.4H155.38V57.4H119.38V93.4ZM204.34 129.4V117.4H192.34V57.4H204.34V45.4H264.34V57.4H276.34V117.4H264.34V129.4H204.34ZM216.34 117.4H252.34V57.4H216.34V117.4ZM313.3 129.4V117.4H301.3V105.4H289.3V69.4H301.3V57.4H313.3V45.4H361.3V57.4H373.3V69.4H349.3V57.4H325.3V69.4H313.3V105.4H325.3V117.4H349.3V105.4H373.3V117.4H361.3V129.4H313.3ZM386.26 129.4V45.4H410.26V81.4H422.26V69.4H434.26V57.4H446.26V45.4H470.26V57.4H458.26V69.4H446.26V81.4H434.26V93.4H446.26V105.4H458.26V117.4H470.26V129.4H434.26V117.4H422.26V105.4H410.26V129.4H386.26Z" fill="#15FF30"/>
</g>
<path d="M95.38 129.4V45.4H167.38V57.4H179.38V93.4H155.38V105.4H167.38V117.4H179.38V129.4H143.38V117.4H131.38V105.4H119.38V129.4H95.38ZM119.38 93.4H143.38V81.4H155.38V57.4H119.38V93.4ZM204.34 129.4V117.4H192.34V57.4H204.34V45.4H264.34V57.4H276.34V117.4H264.34V129.4H204.34ZM216.34 117.4H252.34V57.4H216.34V117.4ZM313.3 129.4V117.4H301.3V105.4H289.3V69.4H301.3V57.4H313.3V45.4H361.3V57.4H373.3V69.4H349.3V57.4H325.3V69.4H313.3V105.4H325.3V117.4H349.3V105.4H373.3V117.4H361.3V129.4H313.3ZM386.26 129.4V45.4H410.26V81.4H422.26V69.4H434.26V57.4H446.26V45.4H470.26V57.4H458.26V69.4H446.26V81.4H434.26V93.4H446.26V105.4H458.26V117.4H470.26V129.4H434.26V117.4H422.26V105.4H410.26V129.4H386.26Z" fill="#15FF30"/>
<g filter="url(#filter2_df_9_423)">
<path d="M48.4 231.4V147.4H120.4V159.4H132.4V183.4H120.4V195.4H132.4V219.4H120.4V231.4H48.4ZM72.4 183.4H108.4V159.4H72.4V183.4ZM72.4 219.4H108.4V195.4H72.4V219.4ZM157.36 231.4V147.4H181.36V219.4H229.36V231.4H157.36ZM242.32 231.4V171.4H254.32V159.4H266.32V147.4H302.32V159.4H314.32V171.4H326.32V231.4H302.32V207.4H266.32V231.4H242.32ZM266.32 195.4H302.32V171.4H290.32V159.4H278.32V171.4H266.32V195.4ZM351.28 231.4V219.4H339.28V207.4H363.28V219.4H399.28V195.4H351.28V183.4H339.28V159.4H351.28V147.4H411.28V159.4H423.28V171.4H399.28V159.4H363.28V183.4H411.28V195.4H423.28V219.4H411.28V231.4H351.28ZM472.24 231.4V159.4H448.24V147.4H520.24V159.4H496.24V231.4H472.24Z" fill="#A31AFF"/>
</g>
<g filter="url(#filter3_df_9_423)">
<path d="M45.4 229.4V145.4H117.4V157.4H129.4V181.4H117.4V193.4H129.4V217.4H117.4V229.4H45.4ZM69.4 181.4H105.4V157.4H69.4V181.4ZM69.4 217.4H105.4V193.4H69.4V217.4ZM154.36 229.4V145.4H178.36V217.4H226.36V229.4H154.36ZM239.32 229.4V169.4H251.32V157.4H263.32V145.4H299.32V157.4H311.32V169.4H323.32V229.4H299.32V205.4H263.32V229.4H239.32ZM263.32 193.4H299.32V169.4H287.32V157.4H275.32V169.4H263.32V193.4ZM348.28 229.4V217.4H336.28V205.4H360.28V217.4H396.28V193.4H348.28V181.4H336.28V157.4H348.28V145.4H408.28V157.4H420.28V169.4H396.28V157.4H360.28V181.4H408.28V193.4H420.28V217.4H408.28V229.4H348.28ZM469.24 229.4V157.4H445.24V145.4H517.24V157.4H493.24V229.4H469.24Z" fill="#A31AFF"/>
</g>
<path d="M45.4 229.4V145.4H117.4V157.4H129.4V181.4H117.4V193.4H129.4V217.4H117.4V229.4H45.4ZM69.4 181.4H105.4V157.4H69.4V181.4ZM69.4 217.4H105.4V193.4H69.4V217.4ZM154.36 229.4V145.4H178.36V217.4H226.36V229.4H154.36ZM239.32 229.4V169.4H251.32V157.4H263.32V145.4H299.32V157.4H311.32V169.4H323.32V229.4H299.32V205.4H263.32V229.4H239.32ZM263.32 193.4H299.32V169.4H287.32V157.4H275.32V169.4H263.32V193.4ZM348.28 229.4V217.4H336.28V205.4H360.28V217.4H396.28V193.4H348.28V181.4H336.28V157.4H348.28V145.4H408.28V157.4H420.28V169.4H396.28V157.4H360.28V181.4H408.28V193.4H420.28V217.4H408.28V229.4H348.28ZM469.24 229.4V157.4H445.24V145.4H517.24V157.4H493.24V229.4H469.24Z" fill="#AE00FF"/>
<defs>
<filter id="filter0_df_9_423" x="70.38" y="20.4" width="424.88" height="134" filterUnits="userSpaceOnUse" color-interpolation-filters="sRGB">
<feFlood flood-opacity="0" result="BackgroundImageFix"/>
<feColorMatrix in="SourceAlpha" type="matrix" values="0 0 0 0 0 0 0 0 0 0 0 0 0 0 0 0 0 0 127 0" result="hardAlpha"/>
<feOffset/>
<feGaussianBlur stdDeviation="12.5"/>
<feComposite in2="hardAlpha" operator="out"/>
<feColorMatrix type="matrix" values="0 0 0 0 0.00480769 0 0 0 0 1 0 0 0 0 0.767788 0 0 0 1 0"/>
<feBlend mode="normal" in2="BackgroundImageFix" result="effect1_dropShadow_9_423"/>
<feBlend mode="normal" in="SourceGraphic" in2="effect1_dropShadow_9_423" result="shape"/>
<feGaussianBlur stdDeviation="6.2" result="effect2_foregroundBlur_9_423"/>
</filter>
<filter id="filter1_df_9_423" x="49.98" y="0" width="465.68" height="174.8" filterUnits="userSpaceOnUse" color-interpolation-filters="sRGB">
<feFlood flood-opacity="0" result="BackgroundImageFix"/>
<feColorMatrix in="SourceAlpha" type="matrix" values="0 0 0 0 0 0 0 0 0 0 0 0 0 0 0 0 0 0 127 0" result="hardAlpha"/>
<feOffset/>
<feGaussianBlur stdDeviation="12.5"/>
<feComposite in2="hardAlpha" operator="out"/>
<feColorMatrix type="matrix" values="0 0 0 0 0.00480769 0 0 0 0 1 0 0 0 0 0.767788 0 0 0 1 0"/>
<feBlend mode="normal" in2="BackgroundImageFix" result="effect1_dropShadow_9_423"/>
<feBlend mode="normal" in="SourceGraphic" in2="effect1_dropShadow_9_423" result="shape"/>
<feGaussianBlur stdDeviation="22.7" result="effect2_foregroundBlur_9_423"/>
</filter>
<filter id="filter2_df_9_423" x="23.4" y="122.4" width="521.84" height="134" filterUnits="userSpaceOnUse" color-interpolation-filters="sRGB">
<feFlood flood-opacity="0" result="BackgroundImageFix"/>
<feColorMatrix in="SourceAlpha" type="matrix" values="0 0 0 0 0 0 0 0 0 0 0 0 0 0 0 0 0 0 127 0" result="hardAlpha"/>
<feOffset/>
<feGaussianBlur stdDeviation="12.5"/>
<feComposite in2="hardAlpha" operator="out"/>
<feColorMatrix type="matrix" values="0 0 0 0 0.639216 0 0 0 0 0.101961 0 0 0 0 1 0 0 0 1 0"/>
<feBlend mode="normal" in2="BackgroundImageFix" result="effect1_dropShadow_9_423"/>
<feBlend mode="normal" in="SourceGraphic" in2="effect1_dropShadow_9_423" result="shape"/>
<feGaussianBlur stdDeviation="6.2" result="effect2_foregroundBlur_9_423"/>
</filter>
<filter id="filter3_df_9_423" x="2.28882e-05" y="100" width="562.64" height="174.8" filterUnits="userSpaceOnUse" color-interpolation-filters="sRGB">
<feFlood flood-opacity="0" result="BackgroundImageFix"/>
<feColorMatrix in="SourceAlpha" type="matrix" values="0 0 0 0 0 0 0 0 0 0 0 0 0 0 0 0 0 0 127 0" result="hardAlpha"/>
<feOffset/>
<feGaussianBlur stdDeviation="12.5"/>
<feComposite in2="hardAlpha" operator="out"/>
<feColorMatrix type="matrix" values="0 0 0 0 0.639216 0 0 0 0 0.101961 0 0 0 0 1 0 0 0 1 0"/>
<feBlend mode="normal" in2="BackgroundImageFix" result="effect1_dropShadow_9_423"/>
<feBlend mode="normal" in="SourceGraphic" in2="effect1_dropShadow_9_423" result="shape"/>
<feGaussianBlur stdDeviation="22.7" result="effect2_foregroundBlur_9_423"/>
</filter>
</defs>
</svg>
