<svg width="72" height="72" viewBox="0 0 72 72" fill="none" xmlns="http://www.w3.org/2000/svg">
<rect x="0.5" y="0.5" width="71" height="71" rx="12.5" stroke="white"/>
<rect x="12.5" y="37.5" width="5" height="5" fill="white"/>
<rect x="13.5" y="41.5" width="5" height="5" fill="white"/>
<rect x="15.5" y="44.5" width="5" height="5" fill="white"/>
<rect x="18.5" y="48.5" width="5" height="5" fill="white"/>
<rect x="21.5" y="51.5" width="5" height="5" fill="white"/>
<rect x="24.5" y="53.5" width="5" height="5" fill="white"/>
<rect x="28.5" y="54.5" width="5" height="5" fill="white"/>
<rect x="33.5" y="54.5" width="5" height="5" fill="white"/>
<rect x="38.5" y="54.5" width="5" height="5" fill="white"/>
<rect x="43.5" y="52.5" width="5" height="5" fill="white"/>
<rect x="47.5" y="49.5" width="5" height="5" fill="white"/>
<rect x="50.5" y="46.5" width="5" height="5" fill="white"/>
<rect x="52.5" y="43.5" width="5" height="5" fill="white"/>
<rect x="53.5" y="39.5" width="5" height="5" fill="white"/>
<rect x="54.5" y="35.5" width="5" height="5" fill="white"/>
<rect x="54.5" y="31.5" width="5" height="5" fill="white"/>
<rect x="52.5" y="28.5" width="5" height="5" fill="white"/>
<rect x="51.5" y="24.5" width="5" height="5" fill="white"/>
<rect x="48.5" y="21.5" width="5" height="5" fill="white"/>
<rect x="46.5" y="18.5" width="5" height="5" fill="white"/>
<rect x="43.5" y="16.5" width="5" height="5" fill="white"/>
<rect x="38.5" y="15.5" width="5" height="5" fill="white"/>
<rect x="36.5" y="13.5" width="5" height="5" fill="white"/>
<rect x="32.5" y="13.5" width="5" height="5" fill="white"/>
<rect x="28.5" y="13.5" width="5" height="5" fill="white"/>
<rect x="25.5" y="15.5" width="5" height="5" fill="white"/>
<rect x="23.5" y="17.5" width="5" height="5" fill="white"/>
<rect x="20.5" y="19.5" width="5" height="5" fill="white"/>
<rect x="16.5" y="21.5" width="5" height="5" fill="white"/>
<rect x="13.5" y="17.5" width="5" height="5" fill="white"/>
<rect x="13.5" y="12.5" width="5" height="5" fill="white"/>
<rect x="13.5" y="21.5" width="5" height="5" fill="white"/>
<rect x="13.5" y="25.5" width="5" height="5" fill="white"/>
<rect x="18.5" y="25.5" width="5" height="5" fill="white"/>
<rect x="23.5" y="25.5" width="5" height="5" fill="white"/>
<rect x="28.5" y="25.5" width="5" height="5" fill="white"/>
</svg>
