<svg width="72" height="72" viewBox="0 0 72 72" fill="none" xmlns="http://www.w3.org/2000/svg">
<rect x="0.5" y="-0.5" width="71" height="71" rx="12.5" transform="matrix(-1 0 0 1 72 1)" stroke="white"/>
<rect width="5" height="5" transform="matrix(-1 0 0 1 59.5 37.5)" fill="white"/>
<rect width="5" height="5" transform="matrix(-1 0 0 1 58.5 41.5)" fill="white"/>
<rect width="5" height="5" transform="matrix(-1 0 0 1 56.5 44.5)" fill="white"/>
<rect width="5" height="5" transform="matrix(-1 0 0 1 53.5 48.5)" fill="white"/>
<rect width="5" height="5" transform="matrix(-1 0 0 1 50.5 51.5)" fill="white"/>
<rect width="5" height="5" transform="matrix(-1 0 0 1 47.5 53.5)" fill="white"/>
<rect width="5" height="5" transform="matrix(-1 0 0 1 43.5 54.5)" fill="white"/>
<rect width="5" height="5" transform="matrix(-1 0 0 1 38.5 54.5)" fill="white"/>
<rect width="5" height="5" transform="matrix(-1 0 0 1 33.5 54.5)" fill="white"/>
<rect width="5" height="5" transform="matrix(-1 0 0 1 28.5 52.5)" fill="white"/>
<rect width="5" height="5" transform="matrix(-1 0 0 1 24.5 49.5)" fill="white"/>
<rect width="5" height="5" transform="matrix(-1 0 0 1 21.5 46.5)" fill="white"/>
<rect width="5" height="5" transform="matrix(-1 0 0 1 19.5 43.5)" fill="white"/>
<rect width="5" height="5" transform="matrix(-1 0 0 1 18.5 39.5)" fill="white"/>
<rect width="5" height="5" transform="matrix(-1 0 0 1 17.5 35.5)" fill="white"/>
<rect width="5" height="5" transform="matrix(-1 0 0 1 17.5 31.5)" fill="white"/>
<rect width="5" height="5" transform="matrix(-1 0 0 1 19.5 28.5)" fill="white"/>
<rect width="5" height="5" transform="matrix(-1 0 0 1 20.5 24.5)" fill="white"/>
<rect width="5" height="5" transform="matrix(-1 0 0 1 23.5 21.5)" fill="white"/>
<rect width="5" height="5" transform="matrix(-1 0 0 1 25.5 18.5)" fill="white"/>
<rect width="5" height="5" transform="matrix(-1 0 0 1 28.5 16.5)" fill="white"/>
<rect width="5" height="5" transform="matrix(-1 0 0 1 33.5 15.5)" fill="white"/>
<rect width="5" height="5" transform="matrix(-1 0 0 1 35.5 13.5)" fill="white"/>
<rect width="5" height="5" transform="matrix(-1 0 0 1 39.5 13.5)" fill="white"/>
<rect width="5" height="5" transform="matrix(-1 0 0 1 43.5 13.5)" fill="white"/>
<rect width="5" height="5" transform="matrix(-1 0 0 1 46.5 15.5)" fill="white"/>
<rect width="5" height="5" transform="matrix(-1 0 0 1 48.5 17.5)" fill="white"/>
<rect width="5" height="5" transform="matrix(-1 0 0 1 51.5 19.5)" fill="white"/>
<rect width="5" height="5" transform="matrix(-1 0 0 1 55.5 21.5)" fill="white"/>
<rect width="5" height="5" transform="matrix(-1 0 0 1 58.5 17.5)" fill="white"/>
<rect width="5" height="5" transform="matrix(-1 0 0 1 58.5 12.5)" fill="white"/>
<rect width="5" height="5" transform="matrix(-1 0 0 1 58.5 21.5)" fill="white"/>
<rect width="5" height="5" transform="matrix(-1 0 0 1 58.5 25.5)" fill="white"/>
<rect width="5" height="5" transform="matrix(-1 0 0 1 53.5 25.5)" fill="white"/>
<rect width="5" height="5" transform="matrix(-1 0 0 1 48.5 25.5)" fill="white"/>
<rect width="5" height="5" transform="matrix(-1 0 0 1 43.5 25.5)" fill="white"/>
</svg>
