<svg width="668" height="259" viewBox="0 0 668 259" fill="none" xmlns="http://www.w3.org/2000/svg">
<g clip-path="url(#clip0_9_1396)">
<path d="M162.308 107.692H157.692V112.308H162.308V107.692Z" fill="#A31AFF"/>
<path d="M162.308 103.077H157.692V107.692H162.308V103.077Z" fill="white"/>
<path d="M157.692 103.077H153.077V107.692H157.692V103.077Z" fill="white"/>
<path d="M157.692 107.692H153.077V112.308H157.692V107.692Z" fill="white"/>
<path d="M153.077 107.692H148.462V112.308H153.077V107.692Z" fill="white"/>
<path d="M148.462 107.692H143.846V112.308H148.462V107.692Z" fill="white"/>
<path d="M140.615 107.692H136V112.308H140.615V107.692Z" fill="white"/>
<path d="M166.923 103.077H162.308V107.692H166.923V103.077Z" fill="white"/>
<path d="M166.923 107.692H162.308V112.308H166.923V107.692Z" fill="white"/>
<path d="M171.538 107.692H166.923V112.308H171.538V107.692Z" fill="white"/>
<path d="M176.154 107.692H171.538V112.308H176.154V107.692Z" fill="white"/>
<path d="M184 107.692H179.385V112.308H184V107.692Z" fill="white"/>
<path d="M166.923 112.308H162.308V116.923H166.923V112.308Z" fill="white"/>
<path d="M162.308 112.308H157.692V116.923H162.308V112.308Z" fill="white"/>
<path d="M162.308 116.923H157.692V121.538H162.308V116.923Z" fill="white"/>
<path d="M162.308 93.8462H157.692V98.4615H162.308V93.8462Z" fill="white"/>
<path d="M162.308 86H157.692V90.6154H162.308V86Z" fill="white"/>
<path d="M162.308 98.4615H157.692V103.077H162.308V98.4615Z" fill="white"/>
<path d="M162.308 121.538H157.692V126.154H162.308V121.538Z" fill="white"/>
<path d="M162.308 129.385H157.692V134H162.308V129.385Z" fill="white"/>
<path d="M157.692 112.308H153.077V116.923H157.692V112.308Z" fill="white"/>
</g>
<g clip-path="url(#clip1_9_1396)">
<path d="M506.308 107.692H501.692V112.308H506.308V107.692Z" fill="#A31AFF"/>
<path d="M506.308 103.077H501.692V107.692H506.308V103.077Z" fill="white"/>
<path d="M501.692 103.077H497.077V107.692H501.692V103.077Z" fill="white"/>
<path d="M501.692 107.692H497.077V112.308H501.692V107.692Z" fill="white"/>
<path d="M497.077 107.692H492.462V112.308H497.077V107.692Z" fill="white"/>
<path d="M492.462 107.692H487.846V112.308H492.462V107.692Z" fill="white"/>
<path d="M484.615 107.692H480V112.308H484.615V107.692Z" fill="white"/>
<path d="M510.923 103.077H506.308V107.692H510.923V103.077Z" fill="white"/>
<path d="M510.923 107.692H506.308V112.308H510.923V107.692Z" fill="white"/>
<path d="M515.538 107.692H510.923V112.308H515.538V107.692Z" fill="white"/>
<path d="M520.154 107.692H515.538V112.308H520.154V107.692Z" fill="white"/>
<path d="M528 107.692H523.385V112.308H528V107.692Z" fill="white"/>
<path d="M510.923 112.308H506.308V116.923H510.923V112.308Z" fill="white"/>
<path d="M506.308 112.308H501.692V116.923H506.308V112.308Z" fill="white"/>
<path d="M506.308 116.923H501.692V121.538H506.308V116.923Z" fill="white"/>
<path d="M506.308 93.8462H501.692V98.4615H506.308V93.8462Z" fill="white"/>
<path d="M506.308 86H501.692V90.6154H506.308V86Z" fill="white"/>
<path d="M506.308 98.4615H501.692V103.077H506.308V98.4615Z" fill="white"/>
<path d="M506.308 121.538H501.692V126.154H506.308V121.538Z" fill="white"/>
<path d="M506.308 129.385H501.692V134H506.308V129.385Z" fill="white"/>
<path d="M501.692 112.308H497.077V116.923H501.692V112.308Z" fill="white"/>
</g>
<g clip-path="url(#clip2_9_1396)">
<path d="M335.308 21.6923H330.692V26.3077H335.308V21.6923Z" fill="#A31AFF"/>
<path d="M335.308 17.0769H330.692V21.6923H335.308V17.0769Z" fill="white"/>
<path d="M330.692 17.0769H326.077V21.6923H330.692V17.0769Z" fill="white"/>
<path d="M330.692 21.6923H326.077V26.3077H330.692V21.6923Z" fill="white"/>
<path d="M326.077 21.6923H321.462V26.3077H326.077V21.6923Z" fill="white"/>
<path d="M321.462 21.6923H316.846V26.3077H321.462V21.6923Z" fill="white"/>
<path d="M313.615 21.6923H309V26.3077H313.615V21.6923Z" fill="white"/>
<path d="M339.923 17.0769H335.308V21.6923H339.923V17.0769Z" fill="white"/>
<path d="M339.923 21.6923H335.308V26.3077H339.923V21.6923Z" fill="white"/>
<path d="M344.538 21.6923H339.923V26.3077H344.538V21.6923Z" fill="white"/>
<path d="M349.154 21.6923H344.538V26.3077H349.154V21.6923Z" fill="white"/>
<path d="M357 21.6923H352.385V26.3077H357V21.6923Z" fill="white"/>
<path d="M339.923 26.3077H335.308V30.9231H339.923V26.3077Z" fill="white"/>
<path d="M335.308 26.3077H330.692V30.9231H335.308V26.3077Z" fill="white"/>
<path d="M335.308 30.9231H330.692V35.5385H335.308V30.9231Z" fill="white"/>
<path d="M335.308 7.84616H330.692V12.4615H335.308V7.84616Z" fill="white"/>
<path d="M335.308 0H330.692V4.61538H335.308V0Z" fill="white"/>
<path d="M335.308 12.4615H330.692V17.0769H335.308V12.4615Z" fill="white"/>
<path d="M335.308 35.5385H330.692V40.1539H335.308V35.5385Z" fill="white"/>
<path d="M335.308 43.3846H330.692V48H335.308V43.3846Z" fill="white"/>
<path d="M330.692 26.3077H326.077V30.9231H330.692V26.3077Z" fill="white"/>
</g>
<g clip-path="url(#clip3_9_1396)">
<path d="M43.2258 222.279H36.7742V228.721H43.2258V222.279Z" fill="white"/>
<path d="M43.2258 215.837H36.7742V222.279H43.2258V215.837Z" fill="white"/>
<path d="M36.7742 215.837H30.3226V222.279H36.7742V215.837Z" fill="white"/>
<path d="M36.7742 222.279H30.3226V228.721H36.7742V222.279Z" fill="white"/>
<path d="M30.3226 222.279H23.871V228.721H30.3226V222.279Z" fill="white"/>
<path d="M23.871 222.279H17.4194V228.721H23.871V222.279Z" fill="white"/>
<path d="M17.4193 222.279H10.9677V228.721H17.4193V222.279Z" fill="white"/>
<path d="M6.45161 222.279H0V228.721H6.45161V222.279Z" fill="white"/>
<path d="M49.6774 215.837H43.2258V222.279H49.6774V215.837Z" fill="white"/>
<path d="M49.6774 222.279H43.2258V228.721H49.6774V222.279Z" fill="white"/>
<path d="M56.129 222.279H49.6774V228.721H56.129V222.279Z" fill="white"/>
<path d="M62.5806 222.279H56.129V228.721H62.5806V222.279Z" fill="white"/>
<path d="M69.0322 222.279H62.5806V228.721H69.0322V222.279Z" fill="white"/>
<path d="M80 222.279H73.5484V228.721H80V222.279Z" fill="white"/>
<path d="M49.6774 228.721H43.2258V235.163H49.6774V228.721Z" fill="white"/>
<path d="M56.129 235.163H49.6774V241.606H56.129V235.163Z" fill="white"/>
<path d="M56.129 209.394H49.6774V215.837H56.129V209.394Z" fill="white"/>
<path d="M30.3226 209.394H23.871V215.837H30.3226V209.394Z" fill="white"/>
<path d="M30.3226 235.163H23.871V241.606H30.3226V235.163Z" fill="white"/>
<path d="M43.2258 228.721H36.7742V235.163H43.2258V228.721Z" fill="white"/>
<path d="M43.2258 235.163H36.7742V241.606H43.2258V235.163Z" fill="white"/>
<path d="M43.2258 202.952H36.7742V209.394H43.2258V202.952Z" fill="white"/>
<path d="M43.2258 192H36.7742V198.442H43.2258V192Z" fill="white"/>
<path d="M43.2258 209.394H36.7742V215.837H43.2258V209.394Z" fill="white"/>
<path d="M43.2258 241.606H36.7742V248.048H43.2258V241.606Z" fill="white"/>
<path d="M43.2258 252.558H36.7742V259H43.2258V252.558Z" fill="white"/>
<path d="M36.7742 228.721H30.3226V235.163H36.7742V228.721Z" fill="white"/>
</g>
<g clip-path="url(#clip4_9_1396)">
<path d="M631.226 222.279H624.774V228.721H631.226V222.279Z" fill="white"/>
<path d="M631.226 215.837H624.774V222.279H631.226V215.837Z" fill="white"/>
<path d="M624.774 215.837H618.323V222.279H624.774V215.837Z" fill="white"/>
<path d="M624.774 222.279H618.323V228.721H624.774V222.279Z" fill="white"/>
<path d="M618.323 222.279H611.871V228.721H618.323V222.279Z" fill="white"/>
<path d="M611.871 222.279H605.419V228.721H611.871V222.279Z" fill="white"/>
<path d="M605.419 222.279H598.968V228.721H605.419V222.279Z" fill="white"/>
<path d="M594.452 222.279H588V228.721H594.452V222.279Z" fill="white"/>
<path d="M637.677 215.837H631.226V222.279H637.677V215.837Z" fill="white"/>
<path d="M637.677 222.279H631.226V228.721H637.677V222.279Z" fill="white"/>
<path d="M644.129 222.279H637.677V228.721H644.129V222.279Z" fill="white"/>
<path d="M650.581 222.279H644.129V228.721H650.581V222.279Z" fill="white"/>
<path d="M657.032 222.279H650.581V228.721H657.032V222.279Z" fill="white"/>
<path d="M668 222.279H661.548V228.721H668V222.279Z" fill="white"/>
<path d="M637.677 228.721H631.226V235.163H637.677V228.721Z" fill="white"/>
<path d="M644.129 235.163H637.677V241.606H644.129V235.163Z" fill="white"/>
<path d="M644.129 209.394H637.677V215.837H644.129V209.394Z" fill="white"/>
<path d="M618.323 209.394H611.871V215.837H618.323V209.394Z" fill="white"/>
<path d="M618.323 235.163H611.871V241.606H618.323V235.163Z" fill="white"/>
<path d="M631.226 228.721H624.774V235.163H631.226V228.721Z" fill="white"/>
<path d="M631.226 235.163H624.774V241.606H631.226V235.163Z" fill="white"/>
<path d="M631.226 202.952H624.774V209.394H631.226V202.952Z" fill="white"/>
<path d="M631.226 192H624.774V198.442H631.226V192Z" fill="white"/>
<path d="M631.226 209.394H624.774V215.837H631.226V209.394Z" fill="white"/>
<path d="M631.226 241.606H624.774V248.048H631.226V241.606Z" fill="white"/>
<path d="M631.226 252.558H624.774V259H631.226V252.558Z" fill="white"/>
<path d="M624.774 228.721H618.323V235.163H624.774V228.721Z" fill="white"/>
</g>
<defs>
<clipPath id="clip0_9_1396">
<rect width="48" height="48" fill="white" transform="translate(136 86)"/>
</clipPath>
<clipPath id="clip1_9_1396">
<rect width="48" height="48" fill="white" transform="translate(480 86)"/>
</clipPath>
<clipPath id="clip2_9_1396">
<rect width="48" height="48" fill="white" transform="translate(309)"/>
</clipPath>
<clipPath id="clip3_9_1396">
<rect width="80" height="67" fill="white" transform="translate(0 192)"/>
</clipPath>
<clipPath id="clip4_9_1396">
<rect width="80" height="67" fill="white" transform="translate(588 192)"/>
</clipPath>
</defs>
</svg>
