<svg width="124" height="104" viewBox="0 0 124 104" fill="none" xmlns="http://www.w3.org/2000/svg">
<rect x="57" y="47" width="10" height="10" fill="white"/>
<rect x="57" y="37" width="10" height="10" fill="white"/>
<rect x="47" y="37" width="10" height="10" fill="white"/>
<rect x="47" y="47" width="10" height="10" fill="white"/>
<rect x="37" y="47" width="10" height="10" fill="white"/>
<rect x="27" y="47" width="10" height="10" fill="white"/>
<rect x="17" y="47" width="10" height="10" fill="white"/>
<rect y="47" width="10" height="10" fill="white"/>
<rect x="67" y="37" width="10" height="10" fill="white"/>
<rect x="67" y="47" width="10" height="10" fill="white"/>
<rect x="77" y="47" width="10" height="10" fill="white"/>
<rect x="87" y="47" width="10" height="10" fill="white"/>
<rect x="97" y="47" width="10" height="10" fill="white"/>
<rect x="114" y="47" width="10" height="10" fill="white"/>
<rect x="67" y="57" width="10" height="10" fill="white"/>
<rect x="77" y="67" width="10" height="10" fill="white"/>
<rect x="77" y="27" width="10" height="10" fill="white"/>
<rect x="37" y="27" width="10" height="10" fill="white"/>
<rect x="37" y="67" width="10" height="10" fill="white"/>
<rect x="57" y="57" width="10" height="10" fill="white"/>
<rect x="57" y="67" width="10" height="10" fill="white"/>
<rect x="57" y="17" width="10" height="10" fill="white"/>
<rect x="57" width="10" height="10" fill="white"/>
<rect x="57" y="27" width="10" height="10" fill="white"/>
<rect x="57" y="77" width="10" height="10" fill="white"/>
<rect x="57" y="94" width="10" height="10" fill="white"/>
<rect x="47" y="57" width="10" height="10" fill="white"/>
</svg>
